<?xml version="1.0" standalone="no"?><!DOCTYPE svg PUBLIC "-//W3C//DTD SVG 1.1//EN" "http://www.w3.org/Graphics/SVG/1.1/DTD/svg11.dtd"><svg t="1657519160036" class="icon" viewBox="0 0 1024 1024" version="1.1" xmlns="http://www.w3.org/2000/svg" p-id="3042" xmlns:xlink="http://www.w3.org/1999/xlink" width="200" height="200"><defs><style type="text/css">@font-face { font-family: feedback-iconfont; src: url("//at.alicdn.com/t/font_1031158_u69w8yhxdu.woff2?t=1630033759944") format("woff2"), url("//at.alicdn.com/t/font_1031158_u69w8yhxdu.woff?t=1630033759944") format("woff"), url("//at.alicdn.com/t/font_1031158_u69w8yhxdu.ttf?t=1630033759944") format("truetype"); }
</style></defs><path d="M409.6 989.866667H160.426667c-39.253333 0-69.973333-32.426667-69.973334-71.68V104.106667C90.453333 66.56 121.173333 34.133333 160.426667 34.133333h633.173333c39.253333 0 69.973333 32.426667 69.973333 69.973334V580.266667c0 13.653333-11.946667 25.6-25.6 25.6s-25.6-11.946667-25.6-25.6V104.106667c0-10.24-8.533333-18.773333-18.773333-18.773334H160.426667c-10.24 0-18.773333 8.533333-18.773334 18.773334v814.08c0 10.24 8.533333 20.48 18.773334 20.48H409.6c13.653333 0 25.6 11.946667 25.6 25.6S423.253333 989.866667 409.6 989.866667z" fill="#2ea3ff" p-id="3043"></path><path d="M634.88 266.24H319.146667c-13.653333 0-25.6-11.946667-25.6-25.6s11.946667-25.6 25.6-25.6h315.733333c13.653333 0 25.6 11.946667 25.6 25.6s-10.24 25.6-25.6 25.6zM634.88 447.146667H319.146667c-13.653333 0-25.6-11.946667-25.6-25.6s11.946667-25.6 25.6-25.6h315.733333c13.653333 0 25.6 11.946667 25.6 25.6s-10.24 25.6-25.6 25.6zM453.973333 628.053333h-136.533333c-13.653333 0-25.6-11.946667-25.6-25.6s11.946667-25.6 25.6-25.6h136.533333c13.653333 0 25.6 11.946667 25.6 25.6s-10.24 25.6-25.6 25.6zM715.093333 948.906667c-78.506667 0-150.186667-39.253333-213.333333-114.346667-8.533333-10.24-8.533333-23.893333 0-32.426667 63.146667-76.8 134.826667-114.346667 213.333333-114.346666s150.186667 39.253333 213.333334 114.346666c8.533333 10.24 8.533333 23.893333 0 32.426667-63.146667 76.8-134.826667 114.346667-213.333334 114.346667zM554.666667 819.2c49.493333 52.906667 100.693333 80.213333 160.426666 80.213333 58.026667 0 110.933333-25.6 158.72-80.213333-49.493333-52.906667-100.693333-80.213333-158.72-80.213333s-110.933333 25.6-160.426666 80.213333z" fill="#2ea3ff" p-id="3044"></path><path d="M715.093333 872.106667c29.013333 0 52.906667-23.893333 52.906667-52.906667 0-29.013333-23.893333-52.906667-52.906667-52.906667-29.013333 0-52.906667 23.893333-52.906666 52.906667 0 29.013333 23.893333 52.906667 52.906666 52.906667z" fill="#2ea3ff" p-id="3045"></path><path d="M667.306667 788.48H300.373333c-59.733333 0-109.226667-49.493333-109.226666-109.226667V226.986667c0-59.733333 49.493333-109.226667 109.226666-109.226667h366.933334c59.733333 0 109.226667 49.493333 109.226666 109.226667v450.56c0 61.44-49.493333 110.933333-109.226666 110.933333z" fill="#2ea3ff" opacity=".3" p-id="3046"></path></svg>